<?xml version="1.0" standalone="no"?>
<!DOCTYPE svg PUBLIC "-//W3C//DTD SVG 20010904//EN"
 "http://www.w3.org/TR/2001/REC-SVG-20010904/DTD/svg10.dtd">
<svg version="1.0" xmlns="http://www.w3.org/2000/svg"
 width="125.000000pt" height="40.000000pt" viewBox="0 0 500.000000 161.000000"
 preserveAspectRatio="xMidYMid meet">

<g transform="translate(0.000000,161.000000) scale(0.100000,-0.100000)"
fill="#000000" stroke="none">
<path d="M1168 1393 c-240 -240 -252 -258 -247 -357 l3 -61 -56 -54 -57 -53
-60 52 -59 52 15 36 c19 46 21 144 3 197 -42 128 -230 276 -399 315 -118 27
-227 -11 -278 -98 -25 -42 -28 -56 -27 -132 1 -102 23 -167 94 -274 118 -176
249 -243 397 -201 l61 17 43 -48 c81 -89 88 -95 103 -87 22 13 270 233 284
252 9 14 10 25 2 45 -15 42 -12 98 9 131 10 17 111 126 226 243 174 178 205
215 195 227 -7 8 -18 15 -24 15 -6 0 -109 -98 -228 -217z"/>
<path d="M1305 1350 c-143 -143 -168 -173 -159 -187 6 -9 15 -18 20 -20 12 -4
349 333 348 347 -1 6 -2 15 -2 20 -5 31 -55 -7 -207 -160z"/>
<path d="M1391 1265 c-149 -149 -172 -177 -161 -190 7 -8 21 -15 30 -15 20 0
333 321 338 347 4 14 -13 32 -28 33 -3 0 -84 -79 -179 -175z"/>
<path d="M1445 1130 c-115 -116 -225 -217 -244 -226 -33 -16 -83 -15 -137 1
-17 5 -78 -59 -392 -414 -331 -374 -376 -421 -408 -427 -41 -8 -80 15 -102 60
-28 56 -13 75 199 263 109 98 199 182 199 189 0 15 -26 37 -39 32 -5 -1 -97
-81 -204 -176 -212 -188 -233 -215 -224 -290 12 -106 126 -172 220 -127 23 11
111 101 254 263 120 135 223 252 229 260 8 11 58 -40 243 -248 169 -189 243
-266 269 -277 72 -30 163 2 199 70 23 44 22 117 -3 154 -10 17 -127 126 -259
243 -132 117 -249 220 -259 230 -18 18 -18 20 27 72 l46 54 63 -4 c101 -6 119
6 351 236 115 114 213 215 218 225 11 20 -4 47 -25 47 -6 0 -106 -95 -221
-210z"/>
<path d="M3721 1164 c-23 -30 -26 -46 -11 -74 26 -49 123 -38 136 15 17 68
-81 114 -125 59z"/>
<path d="M2048 1154 c-5 -4 -8 -164 -8 -356 l0 -348 65 0 65 0 0 130 0 130 64
0 65 0 68 -127 69 -128 72 -3 c40 -2 72 -1 72 2 0 2 -17 35 -38 73 -21 37 -55
98 -75 134 l-37 67 39 25 c103 68 114 256 19 344 -50 47 -93 57 -268 61 -91 2
-168 0 -172 -4z m306 -118 c45 -19 66 -52 66 -104 0 -87 -37 -112 -165 -112
l-85 0 0 115 0 115 75 0 c42 0 90 -6 109 -14z"/>
<path d="M2788 978 c-52 -14 -117 -73 -144 -132 -18 -40 -24 -68 -24 -127 0
-125 36 -197 120 -243 120 -66 292 -29 345 75 8 15 15 32 15 37 0 5 -25 12
-56 15 -52 5 -57 4 -82 -24 -34 -38 -91 -48 -144 -26 -41 17 -65 48 -74 95
l-6 32 183 2 184 3 -1 55 c-1 77 -20 126 -67 177 -59 64 -152 87 -249 61z
m131 -101 c27 -14 56 -51 66 -84 6 -23 6 -23 -119 -23 -81 0 -126 4 -126 10 0
25 33 72 63 90 37 23 81 25 116 7z"/>
<path d="M3345 981 c-116 -30 -185 -130 -185 -267 0 -115 50 -203 140 -250 48
-25 172 -25 220 0 65 34 99 75 114 139 l6 27 -59 0 c-57 0 -60 -1 -79 -34 -44
-74 -146 -66 -191 14 -16 28 -21 55 -21 107 0 85 22 131 74 157 52 26 109 10
138 -40 19 -33 22 -34 79 -34 l59 0 -6 28 c-15 63 -50 105 -113 137 -39 19
-131 28 -176 16z"/>
<path d="M4150 974 c-19 -8 -47 -29 -62 -47 l-27 -32 -1 43 0 42 -60 0 -60 0
0 -365 0 -365 60 0 60 0 0 142 0 142 36 -37 c92 -95 247 -61 310 69 25 51 29
70 29 149 0 79 -4 98 -29 148 -52 106 -159 153 -256 111z m108 -119 c67 -56
68 -211 2 -277 -41 -40 -109 -40 -150 0 -67 67 -66 220 3 278 40 33 104 33
145 -1z"/>
<path d="M4643 976 c-22 -8 -54 -23 -70 -34 -30 -21 -71 -87 -61 -97 3 -3 28
-8 55 -11 45 -6 52 -4 80 25 26 26 39 31 78 31 53 0 95 -32 95 -74 0 -32 -19
-42 -104 -51 -99 -10 -158 -30 -191 -65 -27 -29 -30 -37 -30 -100 0 -66 2 -71
35 -105 68 -67 197 -70 262 -5 l28 28 0 -34 0 -34 60 0 60 0 0 205 c0 161 -3
212 -15 234 -42 83 -169 122 -282 87z m175 -328 c-7 -71 -47 -108 -116 -108
-27 0 -57 7 -70 16 -28 20 -29 68 -2 92 16 13 124 43 184 51 5 1 6 -22 4 -51z"/>
<path d="M3710 715 l0 -265 65 0 65 0 0 265 0 265 -65 0 -65 0 0 -265z"/>
</g>
</svg>
