<svg id="wave" style="transform:rotate(180deg); transition: 0.3s" viewBox="0 0 1440 130" version="1.1" xmlns="http://www.w3.org/2000/svg"><defs><linearGradient id="sw-gradient-0" x1="0" x2="0" y1="1" y2="0"><stop stop-color="rgba(243, 106, 62, .9)" offset="0%"></stop><stop stop-color="rgba(255, 179, 11, 1)" offset="100%"></stop></linearGradient></defs><path style="transform:translate(0, 0px); opacity:1" fill="url(#sw-gradient-0)" d="M0,52L10.4,52C20.9,52,42,52,63,62.8C83.5,74,104,95,125,88.8C146.1,82,167,48,188,36.8C208.7,26,230,39,250,49.8C271.3,61,292,69,313,73.7C333.9,78,355,78,376,78C396.5,78,417,78,438,65C459.1,52,480,26,501,32.5C521.7,39,543,78,563,78C584.3,78,605,39,626,34.7C647,30,668,61,689,71.5C709.6,82,730,74,751,65C772.2,56,793,48,814,41.2C834.8,35,856,30,877,43.3C897.4,56,918,87,939,91C960,95,981,74,1002,73.7C1022.6,74,1043,95,1064,101.8C1085.2,108,1106,100,1127,82.3C1147.8,65,1169,39,1190,43.3C1210.4,48,1231,82,1252,86.7C1273,91,1294,65,1315,47.7C1335.7,30,1357,22,1377,21.7C1398.3,22,1419,30,1440,30.3C1460.9,30,1482,22,1492,17.3L1502.6,13L1502.6,130L1492.2,130C1481.7,130,1461,130,1440,130C1419.1,130,1398,130,1377,130C1356.5,130,1336,130,1315,130C1293.9,130,1273,130,1252,130C1231.3,130,1210,130,1190,130C1168.7,130,1148,130,1127,130C1106.1,130,1085,130,1064,130C1043.5,130,1023,130,1002,130C980.9,130,960,130,939,130C918.3,130,897,130,877,130C855.7,130,835,130,814,130C793,130,772,130,751,130C730.4,130,710,130,689,130C667.8,130,647,130,626,130C605.2,130,584,130,563,130C542.6,130,522,130,501,130C480,130,459,130,438,130C417.4,130,397,130,376,130C354.8,130,334,130,313,130C292.2,130,271,130,250,130C229.6,130,209,130,188,130C167,130,146,130,125,130C104.3,130,83,130,63,130C41.7,130,21,130,10,130L0,130Z"></path></svg>








